<svg width="92" height="324" viewBox="0 0 92 324" fill="none" xmlns="http://www.w3.org/2000/svg">
<path d="M45.5 0L56.3253 249H34.6747L45.5 0Z" fill="#333EA2"/>
<path d="M0.398376 235.25L43.6451 233.079L23.9026 271.617L0.398376 235.25Z" fill="#333EA2"/>
<path d="M48.7539 233.182L91.8045 237.835L66.25 272.791L48.7539 233.182Z" fill="#333EA1"/>
<path d="M34 262H57V312H34V262Z" fill="#333EA2"/>
<path d="M25 248H67V267H25V248Z" fill="#333EA2"/>
<path d="M60 316C60 320.418 53.5081 324 45.5 324C37.4919 324 31 320.418 31 316C31 311.582 37.4919 308 45.5 308C53.5081 308 60 311.582 60 316Z" fill="#333EA2"/>
</svg>
